<svg width="24" height="24" viewBox="0 0 24 24" fill="none" xmlns="http://www.w3.org/2000/svg">
<path d="M20.7498 6.99C20.6098 6.44 20.0598 6.12 19.5098 6.24C17.1298 6.77 14.4798 7 11.9998 7C9.51978 7 6.86978 6.77 4.48978 6.24C3.93978 6.12 3.38978 6.44 3.24978 6.99C3.10978 7.55 3.44978 8.12 3.99978 8.25C5.60978 8.61 7.34978 8.86 8.99978 9V21C8.99978 21.55 9.44978 22 9.99978 22C10.5498 22 10.9998 21.55 10.9998 21V16H12.9998V21C12.9998 21.55 13.4498 22 13.9998 22C14.5498 22 14.9998 21.55 14.9998 21V9C16.6498 8.86 18.3898 8.61 19.9898 8.25C20.5498 8.12 20.8898 7.55 20.7498 6.99ZM11.9998 6C13.0998 6 13.9998 5.1 13.9998 4C13.9998 2.9 13.0998 2 11.9998 2C10.8998 2 9.99978 2.9 9.99978 4C9.99978 5.1 10.8998 6 11.9998 6Z" fill="#182060"/>
</svg>
